<?xml version="1.0" encoding="UTF-8" standalone="no"?>
<!-- Created with Inkscape (http://www.inkscape.org/) -->

<svg
   xmlns:dc="http://purl.org/dc/elements/1.1/"
   xmlns:cc="http://creativecommons.org/ns#"
   xmlns:rdf="http://www.w3.org/1999/02/22-rdf-syntax-ns#"
   xmlns:svg="http://www.w3.org/2000/svg"
   xmlns="http://www.w3.org/2000/svg"
   xmlns:sodipodi="http://sodipodi.sourceforge.net/DTD/sodipodi-0.dtd"
   xmlns:inkscape="http://www.inkscape.org/namespaces/inkscape"
   version="1.1"
   id="svg815"
   width="350"
   height="480"
   viewBox="0 0 350 480"
   sodipodi:docname="arod-logo.svg"
   inkscape:version="0.92.4 (5da689c313, 2019-01-14)">
  <metadata
     id="metadata821">
    <rdf:RDF>
      <cc:Work
         rdf:about="">
        <dc:format>image/svg+xml</dc:format>
        <dc:type
           rdf:resource="http://purl.org/dc/dcmitype/StillImage" />
        <dc:title></dc:title>
      </cc:Work>
    </rdf:RDF>
  </metadata>
  <defs
     id="defs819" />
  <sodipodi:namedview
     pagecolor="#ffffff"
     bordercolor="#666666"
     borderopacity="1"
     objecttolerance="10"
     gridtolerance="10"
     guidetolerance="10"
     inkscape:pageopacity="0"
     inkscape:pageshadow="2"
     inkscape:window-width="1920"
     inkscape:window-height="1017"
     id="namedview817"
     showgrid="false"
     inkscape:zoom="0.62461099"
     inkscape:cx="-88.844969"
     inkscape:cy="111.08773"
     inkscape:window-x="-8"
     inkscape:window-y="-8"
     inkscape:window-maximized="1"
     inkscape:current-layer="svg815" />
  <path
     style="fill:#000000;stroke-width:1.36127543"
     d="m 186.52553,459.62774 c -25.13481,-12.74245 -18.80121,-49.72514 9.28486,-54.21542 16.96833,-2.71282 33.05207,11.32554 32.97438,28.78097 -0.0994,22.31049 -22.19243,35.6076 -42.25924,25.43445 z m 19.85795,-11.83591 c 13.14519,-5.4924 10.11668,-26.08221 -4.23231,-28.77411 -9.90499,-1.85818 -20.08306,9.51706 -16.96605,18.96166 0.82995,2.51482 2.86953,5.80965 4.53238,7.32185 5.33111,4.84813 9.52397,5.47472 16.66598,2.4906 z M 64.400395,460.30838 c 0.325223,-0.93588 4.831929,-13.4923 10.01489,-27.90315 l 9.423552,-26.20157 7.662578,-0.003 7.662565,-0.003 7.13854,19.39818 c 3.92619,10.66899 8.57851,23.25684 10.33849,27.97301 l 3.19995,8.57484 -7.74622,-0.40719 c -7.44594,-0.39139 -7.7952,-0.57869 -9.00939,-4.83133 l -1.26314,-4.42414 h -9.924528 -9.924528 l -1.722857,4.76446 c -1.679692,4.64511 -1.907215,4.76446 -9.082049,4.76446 -5.295211,0 -7.193347,-0.47723 -6.767853,-1.70159 z m 30.436022,-25.86423 c -0.987591,-2.43328 -2.108465,-5.34301 -2.490834,-6.46606 -0.507021,-1.48918 -1.058419,-1.1207 -2.036972,1.36127 -3.663832,9.29279 -3.625757,9.52893 1.53669,9.52893 h 4.786734 z m 29.160043,-0.34032 v -27.90615 l 14.63371,0.005 c 16.58254,0.005 21.57959,1.89635 25.60936,9.68906 3.31009,6.40102 2.05062,16.54387 -2.66554,21.46649 l -3.64817,3.80785 5.49637,9.69951 c 3.023,5.33438 5.49635,10.02423 5.49635,10.42155 0,0.39731 -3.35355,0.72238 -7.45233,0.72238 h -7.45234 l -5.08909,-8.84829 c -3.92679,-6.82742 -5.80012,-8.84829 -8.20232,-8.84829 -2.92417,0 -3.11325,0.53738 -3.11325,8.84829 v 8.84829 h -6.80638 -6.80637 z m 27.80891,-5.54234 c 4.74057,-4.74057 0.34142,-10.11233 -8.28141,-10.11233 h -5.91475 v 6.12574 6.12574 h 6.0285 c 3.66543,0 6.86702,-0.83852 8.16766,-2.13915 z m 83.81567,5.54234 v -27.90615 h 15.72227 c 11.75137,0 16.82257,0.5542 20.07881,2.19431 18.33629,9.23565 22.46415,32.18981 8.22159,45.71843 -6.63071,6.29833 -12.50996,7.89955 -29.00492,7.89955 h -15.01775 z m 32.38674,12.00729 c 7.49054,-5.55306 7.97344,-16.50733 1.03362,-23.44715 -2.62291,-2.62291 -5.14087,-3.48114 -11.57966,-3.94688 l -8.22795,-0.59515 v 15.98684 15.98685 l 7.54347,-0.62556 c 4.60397,-0.3818 8.98023,-1.69069 11.23052,-3.35895 z M 15.81197,372.04952 c 0.495558,-1.56135 13.690905,-32.83338 29.323016,-69.49339 l 28.422001,-66.65456 -5.428766,-7.95315 C 60.244939,216.39942 52.323514,198.67731 48.852003,184.82297 44.989928,169.40993 44.654279,139.75698 48.179982,125.4519 56.435968,91.954315 76.327714,63.324133 104.25655,44.740913 c 52.02322,-34.615069 120.20447,-27.851246 164.82863,16.3516 16.22407,16.070877 28.97675,38.086009 34.70859,59.917967 3.67788,14.00861 4.93502,39.2438 2.65813,53.3581 -4.61249,28.59264 -18.04169,53.94186 -39.3142,74.21033 -12.13139,11.55879 -22.26453,18.54815 -36.27767,25.02262 l -10.04938,4.6431 14.31608,35.04942 c 7.87385,19.27719 14.86648,36.42772 15.53917,38.1123 1.21397,3.04012 1.43519,3.06287 29.78288,3.06287 h 28.55982 l -4.20428,-9.86925 c -24.20875,-56.82845 -32.42884,-76.45227 -32.42884,-77.41741 0,-0.62713 3.39672,-4.43022 7.54827,-8.45131 6.2348,-6.03889 7.74492,-6.93204 8.67846,-5.13279 0.6216,1.19806 11.37541,26.37496 23.89738,55.94867 12.52196,29.5737 23.89656,56.37381 25.27688,59.5558 l 2.50969,5.78542 -51.3116,-0.005 -51.31161,-0.005 -21.48194,-52.74386 c -11.81507,-29.00912 -21.80917,-54.00105 -22.20912,-55.5376 -0.64875,-2.49247 0.62672,-3.19902 11.82727,-6.55186 6.90493,-2.06696 15.67389,-5.32412 19.48656,-7.23816 8.55593,-4.29522 22.00947,-13.79949 26.99989,-19.07411 l 3.73245,-3.94502 -22.56153,-53.02678 c -12.40884,-29.16498 -24.24613,-55.17105 -26.30508,-57.7915 -5.38304,-6.85107 -16.71645,-13.27975 -25.30271,-14.35253 -13.92115,-1.73934 -29.95815,5.93976 -36.64756,17.54819 -1.79155,3.10895 -11.38242,24.94871 -21.31302,48.5328 -9.93061,23.5841 -18.3117,43.18647 -18.62463,43.56082 -0.83448,0.99826 -6.491693,-6.4262 -10.479562,-13.75325 l -3.467714,-6.37132 16.383946,-38.55852 c 18.79247,-44.22686 20.4578,-47.37245 29.61364,-55.936672 12.43031,-11.627089 27.54535,-16.970476 44.3889,-15.692102 11.17559,0.848197 18.96833,3.590554 29.18696,10.271258 12.23645,7.999906 16.41995,15.176396 37.18275,63.784196 10.49807,24.57706 19.70827,46.37014 20.4671,48.42907 0.75884,2.05893 1.85034,3.74351 2.42556,3.74351 1.71932,0 9.65573,-18.94554 12.53652,-29.92673 3.5084,-13.3736 3.74142,-36.22693 0.51379,-50.38852 -3.08678,-13.54359 -13.8411,-35.363444 -22.70532,-46.067738 -13.51566,-16.321339 -36.19886,-30.908589 -56.31776,-36.217196 -12.088,-3.189577 -32.66938,-4.177264 -45.1775,-2.168049 -22.65855,3.639697 -41.76956,13.134892 -58.58439,29.107336 -24.252945,23.037926 -35.578593,51.147567 -34.034567,84.472027 0.849491,18.33461 3.219948,27.65355 11.11638,43.70186 14.083415,28.62238 38.927477,48.97147 70.867787,58.04584 5.98961,1.70168 11.03597,3.16408 11.21413,3.2498 0.17817,0.0858 -9.77616,24.89581 -22.12072,55.13355 -12.34456,30.23774 -22.44465,55.15646 -22.44465,55.37493 0,0.21847 -22.706511,0.39722 -50.458928,0.39722 H 14.910955 Z m 101.21012,-55.774 c 8.51766,-20.98077 15.25597,-38.32556 14.97402,-38.54397 -0.28196,-0.21842 -3.91923,-1.74949 -8.08284,-3.40238 -6.96218,-2.76386 -22.86549,-12.4541 -31.339442,-19.0958 l -3.516488,-2.75615 -21.326789,50.11723 c -11.729729,27.56448 -21.326789,50.51267 -21.326789,50.99599 0,0.48332 12.404623,0.86823 27.565828,0.85535 l 27.56583,-0.0234 15.48667,-38.14683 z m 50.1576,-80.29373 c -13.47426,-2.25791 -27.80548,-14.77443 -31.6187,-27.61493 -4.76573,-16.04795 -1.29799,-30.31921 10.17536,-41.876 9.54533,-9.61476 17.65857,-12.64996 31.79309,-11.89393 16.26835,0.87015 28.62986,9.28248 35.41546,24.10114 4.45852,9.73669 4.084,24.37704 -0.8823,34.49041 -8.21807,16.73526 -26.28417,25.90995 -44.88291,22.79331 z m 16.71012,-22.40315 c 2.17021,-1.12226 5.62675,-4.24425 7.68119,-6.93777 9.64231,-12.6417 -0.31873,-31.86001 -16.51335,-31.86001 -7.73101,0 -14.94786,4.45913 -18.24711,11.27446 -3.65091,7.54178 -3.59363,12.56188 0.21924,19.21253 5.30918,9.26059 17.64334,13.07693 26.86003,8.31079 z"
     id="path825"
     inkscape:connector-curvature="0" />
</svg>
